HIERARCHY
ROOT Hips
{
    OFFSET 0.000000 0.000000 0.000000
    CHANNELS 6 Xposition Yposition Zposition Zrotation Xrotation Yrotation
        JOINT Chest
        {
            OFFSET -0.000000 34.099812 -0.000000
            CHANNELS 3 Zrotation Xrotation Yrotation
            JOINT Neck
            {
                OFFSET -0.000000 25.785578 0.000000
                CHANNELS 3 Zrotation Xrotation Yrotation
                JOINT Head
                {
                    OFFSET -0.000000 11.061110 0.000000
                    CHANNELS 3 Zrotation Xrotation Yrotation
                    End Site
                    {
                        OFFSET -0.000000 17.094444 0.000000
                    }
                }
            }
            JOINT LeftCollar
            {
                OFFSET -0.000000 25.785578 0.000000
                CHANNELS 3 Zrotation Xrotation Yrotation
                JOINT LeftShoulder
                {
                    OFFSET 19.000000 -0.000000 0.000000
                    CHANNELS 3 Zrotation Xrotation Yrotation
                    JOINT LeftElbow
                    {
                        OFFSET 29.227484 0.000000 0.000000
                        CHANNELS 3 Zrotation Xrotation Yrotation
                        JOINT LeftWrist
                        {
                            OFFSET 22.377386 0.000000 0.000000
                            CHANNELS 3 Zrotation Xrotation Yrotation
                            End Site
                            {
                                OFFSET 0.000000 -15.083334 0.000000
                            }
                        }
                    }
                }
            }
            JOINT RightCollar
            {
                OFFSET -0.000000 25.785578 0.000000
                CHANNELS 3 Zrotation Xrotation Yrotation
                JOINT RightShoulder
                {
                    OFFSET -19.000000 0.000000 0.000000
                    CHANNELS 3 Zrotation Xrotation Yrotation
                    JOINT RightElbow
                    {
                        OFFSET -29.227484 0.000000 0.000000
                        CHANNELS 3 Zrotation Xrotation Yrotation
                        JOINT RightWrist
                        {
                            OFFSET -22.377386 0.000000 0.000000
                            CHANNELS 3 Zrotation Xrotation Yrotation
                            End Site
                            {
                                OFFSET -0.000000 -15.083334 0.000000
                            }
                        }
                    }
                }
            }
        }
    JOINT LeftHip
    {
        OFFSET 12.066666 0.000000 0.000000
        CHANNELS 3 Zrotation Xrotation Yrotation
        JOINT LeftKnee
        {
            OFFSET -0.000000 -38.619030 0.000000
            CHANNELS 3 Zrotation Xrotation Yrotation
            JOINT LeftAnkle
            {
                OFFSET -0.000000 -42.566540 0.000000
                CHANNELS 3 Zrotation Xrotation Yrotation
                End Site
                {
                    OFFSET -0.000000 -5.027778 17.094444
                }
            }
        }
    }
    JOINT RightHip
    {
        OFFSET -12.066666 0.000000 0.000000
        CHANNELS 3 Zrotation Xrotation Yrotation
        JOINT RightKnee
        {
            OFFSET -0.000000 -38.619030 0.000000
            CHANNELS 3 Zrotation Xrotation Yrotation
            JOINT RightAnkle
            {
                OFFSET -0.000000 -42.566540 0.000000
                CHANNELS 3 Zrotation Xrotation Yrotation
                End Site
                {
                    OFFSET -0.000000 -5.027778 17.094444
                }
            }
        }
    }
}
MOTION
Frames:    10
Frame Time:    0.010000
52.010132    89.498100    -38.973988    -2.499321    3.366673    -33.548717    9.214248    1.631136    -1.496484    -4.948266    23.221146    7.105472    -1.400400    -19.807285    6.706164    -3.444171    0.013407    0.212074    -8.939893    -1.749756    4.210152    -21.972876    7.768788    -38.555077    113.875885    15.990744    19.986744    -0.361434    -0.054634    8.436388    -3.476146    5.825212    0.409770    -1.889747    0.000167    -2.087486    -98.354897    2.649551    -18.534470    5.282680    7.138504    -0.191005    -2.239427    4.549793    13.281282    -6.403674    -14.712481    32.839771    3.124140    -7.241039    5.375021    -0.721705    11.029775    1.431277    2.259247    -7.699368    -19.542610    
52.005695    89.525345    -38.960793    -2.483560    3.288756    -33.322029    9.211617    2.777199    -1.839921    -5.190888    20.281279    6.969797    1.430174    -17.627098    6.235019    -2.476238    -0.013296    0.683095    -8.654643    -3.641141    4.162062    -20.831076    6.793427    -35.325611    111.997566    14.723110    18.661091    -2.815860    -0.305494    8.096012    -3.180036    3.302852    0.580825    -1.892676    0.034652    -4.582748    -94.518326    0.882093    -17.845329    5.278644    7.078241    -0.403508    -2.365645    4.636947    13.623238    -6.281224    -14.730413    32.638924    3.007985    -7.091779    5.370232    -0.642861    10.905072    1.090624    2.181103    -7.632854    -19.400667    
51.913631    89.519005    -38.994503    -2.667171    3.181258    -33.245735    9.098238    2.834424    -1.839159    -4.973380    20.693470    6.798013    1.488029    -17.909496    6.111383    -2.398540    -0.040343    0.691115    -7.602615    -2.530284    4.128844    -19.218033    5.685682    -32.783520    110.528458    13.424394    18.624107    -3.575588    -0.334674    8.251224    -3.624902    2.567435    -0.144991    -1.610701    0.038301    -5.320992    -95.598663    1.700293    -19.720713    5.533681    7.149087    0.094060    -2.443307    4.876575    12.916665    -6.279227    -14.776398    32.677753    3.209310    -6.851616    5.546775    -0.692679    10.836960    0.752785    2.253600    -7.637520    -19.359682    
51.880127    89.536682    -39.011868    -2.728473    3.122730    -33.150154    9.007973    3.081488    -1.929043    -4.897399    20.314644    6.650684    1.669075    -17.707659    6.017420    -2.131524    -0.002816    0.708039    -6.980006    -2.459104    4.150067    -17.975595    4.960573    -30.704950    108.982925    12.553025    18.040834    -4.493855    -0.389774    8.171393    -3.799138    1.689170    -0.456880    -1.488543    0.074500    -6.372694    -94.672234    1.215142    -20.222736    5.636997    7.141928    0.238458    -2.512738    5.008043    12.728120    -6.257874    -14.807650    32.634090    3.254812    -6.728298    5.601615    -0.691894    10.780714    0.537977    2.254106    -7.616892    -19.302691    
51.844849    89.559692    -39.036297    -2.790280    3.069282    -33.047634    8.889364    3.285343    -2.004663    -4.790272    20.069880    6.481809    1.852208    -17.608097    5.904912    -1.883368    -0.027747    0.699343    -6.216013    -2.169480    4.210163    -16.523296    4.189053    -28.491394    107.314743    11.672698    17.463696    -5.443597    -0.453635    8.116864    -4.030893    0.822257    -0.864968    -1.331561    0.095283    -7.480878    -93.716034    0.657361    -20.710899    5.753291    7.116539    0.395650    -2.586750    5.158196    12.518381    -6.242923    -14.843050    32.590080    3.308598    -6.612952    5.648707    -0.694526    10.728643    0.325551    2.253177    -7.596597    -19.245680    
51.809799    89.587173    -39.068680    -2.848056    3.028420    -32.940609    8.747464    3.437146    -2.052876    -4.645841    19.969072    6.295853    2.023397    -17.618563    5.774575    -1.671499    0.009024    0.654956    -5.314910    -1.816049    4.330102    -15.020893    3.478408    -26.098339    105.633736    10.766780    16.680658    -6.408025    -0.516308    8.104478    -4.306822    -0.029292    -1.377857    -1.133737    0.101991    -8.570468    -92.957008    0.261485    -21.187975    5.878884    7.065470    0.548833    -2.662169    5.321862    12.304729    -6.234335    -14.879514    32.548580    3.369678    -6.519336    5.676615    -0.701402    10.686819    0.134036    2.250181    -7.578221    -19.192375    
51.777214    89.618210    -39.109798    -2.897820    3.006992    -32.831715    8.589275    3.529263    -2.064868    -4.462773    20.012667    6.096028    2.170779    -17.738655    5.631124    -1.504438    -0.028768    0.562690    -4.296645    -1.315516    4.543434    -13.498420    2.825759    -23.725166    104.035553    9.970313    15.881275    -7.397534    -0.588577    8.171474    -4.591779    -0.922385    -2.032857    -0.869026    0.079803    -9.553496    -92.633980    0.365198    -21.628092    6.009853    6.982739    0.679398    -2.736271    5.492574    12.107235    -6.231246    -14.913372    32.511913    3.436823    -6.460330    5.674090    -0.713005    10.661118    -0.018949    2.244688    -7.563299    -19.145802    
51.749275    89.652023    -39.160152    -2.936246    3.010530    -32.724274    8.421707    3.555867    -2.035868    -4.230270    20.205063    5.879225    2.274567    -17.967625    5.467731    -1.388416    0.000184    0.399427    -3.183822    -0.853354    4.863702    -12.092100    2.264236    -21.341818    102.602859    9.234296    14.824235    -8.450867    -0.669518    8.359858    -4.829735    -2.002496    -2.892329    -0.518446    0.053081    -10.348621    -93.018913    1.339382    -21.946678    6.141991    6.864656    0.771448    -2.806639    5.663173    11.944180    -6.232369    -14.941131    32.482174    3.508280    -6.446864    5.632580    -0.729066    10.657125    -0.115854    2.236126    -7.553636    -19.110947    
51.727772    89.687988    -39.219803    -2.961396    3.042794    -32.622520    8.253426    3.516572    -1.965959    -3.953512    20.533381    5.650718    2.323694    -18.293850    5.291409    -1.321478    0.000523    0.180971    -2.016433    -0.357894    5.278205    -10.773605    1.808738    -19.094683    101.331116    8.649287    13.797609    -9.584236    -0.776173    8.693185    -4.999720    -3.325187    -3.980000    -0.067128    0.008645    -10.907374    -94.452637    3.450577    -22.072651    6.271689    6.710551    0.815416    -2.871195    5.826807    11.827883    -6.236502    -14.959949    32.461426    3.582456    -6.486471    5.549010    -0.748242    10.679148    -0.142136    2.223500    -7.550897    -19.094534    
51.713718    89.725677    -39.288132    -2.973095    3.105050    -32.530506    8.090800    3.409019    -1.861613    -3.634171    21.003630    5.411568    2.309138    -18.716906    5.101539    -1.297085    0.020327    -0.078742    -0.836483    0.134816    5.751384    -9.575871    1.418903    -16.975218    100.251266    8.137767    12.729079    -10.730310    -0.895705    9.121048    -5.144359    -4.737491    -5.227235    0.449143    -0.063970    -11.257075    -97.132439    6.600029    -21.908623    6.396303    6.523440    0.809928    -2.927557    5.977836    11.759490    -6.243487    -14.968230    32.452564    3.657890    -6.581669    5.426083    -0.768113    10.729450    -0.089136    2.205620    -7.556467    -19.103474    
